<svg xmlns="http://www.w3.org/2000/svg" viewBox="0 0 64 64"><defs><linearGradient id="f" x1="0" y1="0" x2="0" y2="1"><stop offset="0" stop-color="#a9d1fb"/><stop offset="1" stop-color="#3d8ae6"/></linearGradient><linearGradient id="b" x1="0" y1="0" x2="0" y2="1"><stop offset="0" stop-color="#56565c"/><stop offset="1" stop-color="#1d1d21"/></linearGradient><linearGradient id="r" x1="0" y1="0" x2="0" y2="1"><stop offset="0" stop-color="#e2e5ea"/><stop offset="1" stop-color="#9da2ac"/></linearGradient><linearGradient id="i" x1="0" y1="0" x2="0" y2="1"><stop offset="0" stop-color="#1e1e22"/><stop offset="1" stop-color="#3b3b40"/></linearGradient><radialGradient id="p" cx=".38" cy=".3" r=".78"><stop offset="0" stop-color="#fff"/><stop offset=".6" stop-color="#eef2f8"/><stop offset="1" stop-color="#b9c5d6"/></radialGradient></defs><path d="M34.97 37.58 L57.75 34.38 C62.65 32.15 59.39 23.06 54.19 24.44 C57.79 20.44 51.19 13.4 46.97 16.74 C48.69 11.64 39.83 7.8 37.28 12.54 C36.83 7.18 27.17 7.18 26.72 12.54 C24.17 7.8 15.31 11.64 17.03 16.74 C12.81 13.4 6.21 20.44 9.81 24.44 C4.61 23.06 1.35 32.15 6.25 34.38 L29.03 37.58 Z" fill="url(#f)" stroke="#1c6ad6" stroke-width="1.5" stroke-linejoin="round"/><path d="M37.12 34.87 L53.96 24.58 M35.45 33.09 L46.82 16.95 M33.22 32.12 L37.23 12.8 M30.78 32.12 L26.77 12.8 M28.55 33.09 L17.18 16.95 M26.88 34.87 L10.04 24.58" stroke="#fff" stroke-opacity=".7" stroke-width=".9" stroke-linecap="round"/><path d="M4 40 A28 5 0 0 0 60 40 C60 51.5 47 58 32 58 C17 58 4 51.5 4 40 Z" fill="url(#b)"/><ellipse cx="32" cy="40" rx="28" ry="5" fill="url(#r)"/><ellipse cx="32" cy="40.4" rx="25.8" ry="3.9" fill="url(#i)"/><ellipse cx="32" cy="43.6" rx="7.5" ry="1.5" fill="#000" fill-opacity=".45"/><circle cx="32" cy="36.5" r="9.3" fill="url(#p)"/><path d="M30 32.5v-1.6 M32 32.5v-1.6 M34 32.5v-1.6 M30 40.5v1.6 M32 40.5v1.6 M34 40.5v1.6 M28 34.5h-1.6 M28 36.5h-1.6 M28 38.5h-1.6 M36 34.5h1.6 M36 36.5h1.6 M36 38.5h1.6" stroke="#0a5bd3" stroke-width="1" stroke-linecap="round"/><rect x="28" y="32.5" width="8" height="8" rx="1.4" fill="#f4f8fe" stroke="#0a5bd3" stroke-width="1.4"/><rect x="30.3" y="34.8" width="3.4" height="3.4" rx=".6" fill="#fff" stroke="#0a5bd3" stroke-opacity=".5" stroke-width=".6"/><ellipse cx="28.2" cy="31.4" rx="2.1" ry="1.3" fill="#fff" transform="rotate(-30 28.2 31.4)"/></svg>
